<svg width="44" height="43" viewBox="0 0 44 43" fill="none" xmlns="http://www.w3.org/2000/svg">
<path d="M31.7162 5.32028C31.6335 4.16267 31.7162 2.83967 30.8893 2.01281C29.7317 0.855189 26.0108 1.434 24.6051 1.434C20.8842 1.26862 17.1633 1.18594 13.3597 1.02056C11.7059 0.937875 8.15039 0.193693 6.57934 1.26862C5.25635 2.17818 6.16591 3.17042 5.50441 4.41073C5.42172 4.5761 5.42172 4.74147 5.42172 4.90685C4.51216 4.82416 3.60262 4.74147 2.69306 4.65879C2.36231 4.65879 1.94888 4.90685 1.86619 5.23759C1.61813 6.4779 1.7835 29.7956 0.129761 39.8007C0.0470742 40.2968 0.377822 40.8756 0.95663 40.8756C5.00829 40.5449 8.97726 40.4622 12.9462 40.8756C15.6749 41.1237 18.3209 42.116 20.8015 40.4622C21.2976 40.1315 21.8764 39.718 22.5379 39.2219C25.1012 39.2219 27.6645 39.2219 30.3105 39.2219C30.7239 39.2219 31.1374 38.8085 31.1374 38.395L31.6335 16.3176C31.7162 12.6794 31.8815 8.95851 31.7162 5.32028ZM19.7266 32.607C19.2304 33.4338 19.2304 34.5088 19.0651 35.4183C18.8997 36.6586 18.8997 37.9816 18.4036 39.2219C18.4036 39.3046 18.4036 39.3046 18.4036 39.3873C15.923 39.9661 13.277 39.3046 10.631 39.1392C7.65427 38.9739 4.76023 38.9739 1.7835 39.2219C3.18918 29.8783 3.43723 20.5347 2.36231 11.1911C2.52768 10.4469 2.44499 7.80089 3.0238 7.13939C4.09873 5.98178 6.00053 6.72596 7.40621 6.80865C10.7137 7.05671 14.0212 7.30477 17.2459 7.63551C18.7343 7.7182 20.7188 7.55283 22.2072 8.04895C24.109 7.80089 25.1839 8.71044 25.68 10.8603C25.5973 11.3564 25.5146 11.8525 25.432 12.4314C25.2666 15.3254 24.8531 18.2194 24.6878 21.1135C24.6051 24.1729 24.6878 27.315 24.8531 30.3744C24.9358 31.532 24.8531 32.5243 24.6878 33.3511C23.6128 32.9377 22.4552 32.4416 21.3803 32.1108C20.8842 31.7801 20.2227 31.8628 19.7266 32.607ZM20.3881 38.5604C20.6361 37.3201 20.7188 36.0798 20.8842 34.8395C20.9669 34.4261 20.8015 33.8473 21.2149 33.6819C21.5457 33.5165 21.9591 33.8473 22.2899 33.93C22.9513 34.178 23.6955 34.4261 24.357 34.6741C23.6955 35.9144 22.6206 36.9067 21.0496 38.0643C20.8842 38.3124 20.6361 38.395 20.3881 38.5604ZM30.0624 10.7776C29.9797 16.3176 29.8144 21.775 29.7317 27.315C29.649 29.8783 29.8971 32.6896 29.5663 35.1703C29.2356 37.4855 29.5663 37.2374 27.1684 37.4855C26.2588 37.5682 25.3493 37.5682 24.5224 37.5682C25.5146 36.6586 26.3415 35.6664 26.7549 34.8395C27.9952 32.1108 26.5896 27.5631 26.5896 24.7517C26.5069 20.2039 26.8376 15.5735 27.4991 11.1084C27.6645 9.70269 28.326 7.80089 26.9203 6.72596C26.2588 6.22984 24.7705 6.39521 24.109 6.31252C21.6284 6.14715 19.1477 5.89909 16.6671 5.73372C13.4424 5.48566 10.2176 5.23759 6.99278 4.98953C7.65427 3.58386 7.15815 2.83967 9.30801 2.50893C12.0367 2.0128 15.3442 2.75699 18.1555 2.83967C20.7188 2.92236 23.6955 2.59161 26.1761 3.08773C28.7394 3.66654 29.5663 4.24535 30.1451 6.89133C30.3105 8.13164 30.1451 9.62 30.0624 10.7776Z" fill="#c09e32"/>
<path d="M16.8322 35.7484C16.8322 35.6658 16.7495 35.5831 16.7495 35.5831C16.5842 35.2523 16.1707 35.0869 15.84 35.1696C15.7573 35.1696 15.7573 35.1696 15.6746 35.2523C15.3439 35.335 15.1785 35.5831 15.0958 35.7484C14.4343 35.9138 13.3594 35.9138 13.1113 35.9138C12.4498 35.8311 11.9537 35.5831 11.3749 35.5004C10.8788 35.4177 10.4653 35.5004 10.0519 35.6658C9.80384 34.4255 9.55579 33.2678 9.30772 32.0275C9.14235 31.2833 8.1501 31.2833 7.81936 31.8622C6.9098 33.4332 6.08293 35.0043 5.33875 36.658C4.92532 37.6502 6.33099 38.4771 6.74443 37.4849C7.15786 36.4926 7.65398 35.5831 8.1501 34.5908C8.31547 35.5004 8.48085 36.4099 8.64623 37.2368C8.72891 37.8156 9.63847 38.0637 10.0519 37.5676C11.2095 36.3272 11.4576 37.4022 12.4498 37.5676C13.0286 37.6502 13.8555 37.4022 14.3516 37.3195C15.1785 37.2368 16.088 37.2368 16.6669 36.658C16.9976 36.4926 16.9976 36.0792 16.8322 35.7484Z" fill="#c09e32"/>
<path d="M20.5534 12.0184C16.6672 11.9357 12.7809 11.605 8.97727 11.1089C7.90234 10.9435 7.48891 12.5145 8.56384 12.6799C12.5328 13.2587 16.5845 13.5895 20.6361 13.6721C21.6284 13.6721 21.6284 12.0184 20.5534 12.0184Z" fill="#c09e32"/>
<path d="M22.2075 15.8215H7.07579C6.00086 15.8215 6.00086 17.4753 7.07579 17.4753H22.2075C23.2824 17.4753 23.2824 15.8215 22.2075 15.8215Z" fill="#c09e32"/>
<path d="M22.207 19.5423C17.4111 20.0384 12.6153 20.1211 7.90214 19.8731C6.82721 19.7904 6.82721 21.4441 7.90214 21.5268C12.698 21.7749 17.4938 21.6095 22.207 21.196C23.2819 21.1134 23.2819 19.4596 22.207 19.5423Z" fill="#c09e32"/>
<path d="M20.3051 23.6756C17.0803 23.1795 13.9382 23.2622 10.7134 23.9237C9.63851 24.1717 10.1346 25.7428 11.1269 25.4947C14.0209 24.8332 16.915 24.7506 19.809 25.2467C20.8839 25.412 21.2974 23.841 20.3051 23.6756Z" fill="#c09e32"/>
<path d="M43.1269 21.7743C43.1269 21.6916 43.1269 21.6916 43.1269 21.7743C43.2923 21.1955 43.0442 20.534 42.3827 20.534H40.729C40.729 19.7898 40.6463 19.0457 40.6463 18.3015C40.6463 17.8054 40.2329 17.4746 39.8194 17.4746C39.9848 16.0689 39.7368 14.1671 38.1657 13.9191C37.3388 13.7537 36.512 14.2498 36.0985 14.994C35.6851 15.7382 35.7678 16.6477 35.8505 17.3919C35.6024 17.4746 35.3543 17.64 35.1063 17.888C34.9409 17.9707 34.7755 18.1361 34.7755 18.3842C34.6928 18.5495 34.6929 18.7149 34.6929 18.7976C34.6929 19.3764 34.6928 19.9552 34.6102 20.534H34.0314C32.9564 20.534 32.9564 22.1878 34.0314 22.1878H34.6102C34.5275 26.2394 34.4448 30.2911 34.6102 34.4254C34.6928 36.4099 34.4448 38.8078 36.6773 39.304V41.8673C36.6773 42.9422 38.3311 42.9422 38.3311 41.8673V39.304C39.7367 38.9732 40.3156 37.6502 40.5636 35.9965C41.2251 31.6141 40.9771 26.8182 40.8117 22.1878H41.4732C41.6386 25.6606 41.8866 29.1335 41.8039 32.6063C41.8039 33.6812 43.4577 33.6812 43.4577 32.6063C43.623 28.9681 43.2923 25.3299 43.1269 21.7743ZM37.9176 15.4901C38.1657 15.5728 38.1657 16.2343 38.2484 16.3997C38.2484 16.6477 38.2484 16.9785 38.2484 17.2265C38.0003 17.2265 37.7523 17.1439 37.5869 17.1439C37.5042 16.4824 37.4215 15.4074 37.9176 15.4901ZM36.3466 19.0457C37.2561 18.963 38.1657 18.963 38.9926 19.0457C38.9926 19.5418 38.9926 20.0379 38.9926 20.534H36.2639C36.3466 20.0379 36.3466 19.5418 36.3466 19.0457ZM36.1812 32.1102C36.1812 30.6218 36.1812 29.1335 36.1812 27.5624C36.1812 25.7433 36.2639 23.9242 36.2639 22.1051H39.0753C39.0753 24.0069 39.0753 25.9914 39.0753 27.8932C39.0753 29.2162 39.0753 30.5391 38.9926 31.9448C38.9926 32.7717 38.9926 33.5159 38.9099 34.3427C38.8272 34.4254 38.8272 34.5908 38.8272 34.6735C38.8272 35.0042 38.4138 35.335 38.083 35.335C37.9176 35.335 37.7523 35.4177 37.5869 35.5004C37.5869 35.5004 37.5869 35.5004 37.5042 35.5004C35.6851 34.9215 36.2639 33.8466 36.1812 32.1102Z" fill="#c09e32"/>
</svg>
