<svg width="20" height="20" viewBox="0 0 20 20" fill="none" xmlns="http://www.w3.org/2000/svg">
<path d="M10.3525 19.2769C15.5992 19.2769 19.8525 15.0236 19.8525 9.77686C19.8525 4.53015 15.5992 0.276855 10.3525 0.276855C5.10583 0.276855 0.852539 4.53015 0.852539 9.77686C0.852539 15.0236 5.10583 19.2769 10.3525 19.2769Z" fill="#C09E32"/>
<path d="M13.8257 11.4324C13.5217 11.2261 13.1223 11.2271 12.8194 11.435L12.3833 11.7343C11.8976 12.0677 11.2516 12.0496 10.7847 11.6903C10.3446 11.3516 9.92462 10.9884 9.52577 10.6036C9.14091 10.2048 8.77779 9.7848 8.4391 9.34472C8.07973 8.87784 8.06166 8.23184 8.39505 7.74605L8.69437 7.30994C8.90222 7.00705 8.9033 6.60768 8.69701 6.30368L7.44865 4.46398C7.10379 3.95581 6.43255 3.78555 5.88805 4.06962L5.88771 4.06977C4.78783 4.64363 4.32637 5.97058 4.83032 7.1042C5.5557 8.73609 6.52967 10.2287 7.70511 11.5359L8.59347 12.4243C9.90069 13.5997 11.3933 14.5737 13.0252 15.2991C14.1588 15.803 15.4858 15.3416 16.0596 14.2417L16.0598 14.2413C16.3438 13.6969 16.1736 13.0256 15.6654 12.6807L13.8257 11.4324Z" fill="white"/>
</svg>
