<svg width="41" height="59" viewBox="0 0 41 59" fill="none" xmlns="http://www.w3.org/2000/svg">
<path d="M39.5487 14.4C36.3239 15.723 33.0164 15.9711 29.6263 15.8884C32.2723 14.8135 34.4221 12.9944 35.249 9.76958C35.4144 9.19077 35.0009 8.77734 34.4221 8.69465C30.3705 8.19853 26.8976 11.506 22.7633 11.7541C23.8382 9.35614 25.5746 7.20629 28.0552 6.95823C28.5514 6.87554 28.8821 6.4621 28.8821 6.04867C30.7839 3.89881 27.1457 1.17014 25.2439 0.756706C24.5824 0.591333 24.1689 1.17014 24.2516 1.74895V1.83164C21.0268 5.55255 18.9597 9.85227 18.0501 14.6481C16.4791 12.9117 17.2232 6.79285 17.2232 5.30449C17.2232 4.64299 16.5618 4.39493 16.0656 4.5603C15.8176 4.5603 15.5695 4.64299 15.4868 4.97374C14.4119 6.71016 13.6677 8.52928 13.2543 10.4311C11.6832 8.3639 10.6083 5.8833 10.1949 3.15463C10.1122 2.41044 9.11994 2.41044 8.7065 2.90657C8.45844 2.98925 8.21037 3.15463 8.12768 3.48537C7.54888 6.29673 7.05276 10.9272 9.03725 13.4905C7.71425 13.5732 6.39126 13.9039 5.23364 14.5654C2.09154 16.4672 0.768555 20.4362 0.768555 23.909C0.851242 29.7798 3.91066 35.2372 4.57216 41.1079C5.06828 45.8211 4.82022 51.4438 7.54889 55.5781C12.8409 63.4334 23.8382 54.5032 28.5514 50.2862C35.0009 44.4981 42.8562 34.2449 38.3084 25.232C37.2335 23.0822 35.5798 21.5111 33.5953 20.3535C36.2412 19.1959 38.5565 17.6248 40.6237 15.6404C41.2851 14.9789 40.3756 14.0693 39.5487 14.4ZM27.3937 12.5809C29.2955 11.8368 31.1973 10.5964 33.2645 10.4311C31.3627 14.8962 26.0708 15.5577 21.523 15.5577C21.6883 14.8962 21.8537 14.2347 22.1018 13.5732C24.0036 13.5732 25.6573 13.2424 27.3937 12.5809ZM24.4997 4.22956C24.6651 4.97374 24.9958 5.71792 25.3266 6.29673C22.1845 8.11584 20.3654 12.4156 19.7865 15.8057C19.7039 15.8057 19.5385 15.723 19.4558 15.723C20.2827 11.4233 21.9364 7.53703 24.4997 4.22956ZM14.4946 12.0021C14.5773 11.3406 14.7426 10.7618 14.908 10.183C14.908 11.0926 14.908 11.9194 14.9907 12.829C14.7427 12.6636 14.5773 12.4156 14.3292 12.1675C14.4119 12.0848 14.4946 12.0848 14.4946 12.0021ZM13.6677 14.2347C12.7582 13.9866 11.9313 13.8212 11.0217 13.7386C11.0217 13.4905 10.8564 13.3251 10.691 13.1597C9.28531 12.1675 9.03725 9.76958 9.11994 7.61972C9.94681 10.4311 11.6005 12.5809 13.6677 14.2347ZM37.7296 30.524C37.9777 36.9736 33.3472 43.0924 29.0475 47.4748C25.4093 51.1957 20.1173 55.6608 14.908 56.9838C5.81246 59.2164 6.55665 45.4076 5.89515 39.9503C5.15097 34.6583 2.25691 29.6144 2.25691 24.2398C2.25691 20.4362 3.6626 17.046 7.4662 15.8884C11.1044 14.7308 15.4041 16.6326 18.7943 17.9556C18.877 18.0383 19.0424 18.0383 19.1251 18.0383C20.6134 18.5344 22.1018 18.7825 23.6728 18.8651C24.0863 18.9478 24.4997 19.1132 24.9131 19.1959C31.1147 20.6016 37.4816 23.0822 37.7296 30.524ZM32.4376 19.1132C32.1896 19.1959 32.0242 19.3613 31.9415 19.6093C30.2878 18.7825 28.4687 18.2863 26.6495 17.7902H26.5669C26.5669 17.6248 26.4842 17.4595 26.3188 17.2941C29.709 17.5421 33.0164 17.7075 36.2412 17.046C35.0836 17.8729 33.7606 18.5344 32.4376 19.1132Z" fill="#c09e32"/>
<path d="M9.03747 26.72C8.95478 25.7278 7.79717 25.6451 7.46642 26.472C7.30105 26.6374 7.13568 26.8027 7.13568 27.0508C7.13568 27.8777 7.13568 28.7045 7.13568 29.4487C7.13568 30.5236 8.70673 30.5236 8.78942 29.4487C8.78942 29.118 8.87209 28.8699 8.87209 28.5392C9.03746 27.9603 9.03747 27.3815 9.03747 26.72Z" fill="#c09e32"/>
<path d="M14.4941 21.8412C14.4941 21.5931 14.4114 21.345 14.246 21.097C13.6672 20.1874 12.2616 21.0143 12.8404 21.9238C12.8404 22.0065 12.9231 22.0892 12.9231 22.0892C12.8404 22.42 12.7577 22.668 12.7577 22.9988C12.7577 23.9083 14.246 24.1564 14.4114 23.2468C14.4941 22.9988 14.4941 22.668 14.5768 22.42C14.5768 22.2546 14.5768 22.0065 14.4941 21.8412Z" fill="#c09e32"/>
<path d="M20.283 26.4711C20.1176 26.5537 19.9523 26.7191 19.8696 26.9672C19.7869 27.1326 19.7869 27.3806 19.7042 27.546C19.3734 27.794 19.3734 28.1248 19.4561 28.4555C19.4561 28.6209 19.3734 28.7036 19.3734 28.869C19.2081 29.6132 20.2003 30.3573 20.7791 29.6958C21.3579 28.9517 21.6887 28.0421 21.6887 27.1326C21.606 26.3057 20.6964 26.0576 20.283 26.4711Z" fill="#c09e32"/>
<path d="M15.652 30.6054C15.7347 30.192 15.2386 29.7786 14.8251 29.7786C14.329 29.7786 14.0809 30.192 13.9983 30.6054C13.9156 31.1842 13.8329 31.7631 13.7502 32.4245C13.6675 32.838 14.1636 33.2514 14.5771 33.2514C15.0732 33.2514 15.3213 32.838 15.4039 32.4245C15.4866 32.0111 15.4866 31.5977 15.5693 31.2669V31.1842C15.5693 30.9362 15.5693 30.7708 15.652 30.6054Z" fill="#c09e32"/>
<path d="M11.5178 37.7163C11.5178 37.6336 11.5178 37.5509 11.5178 37.4682C11.5178 37.0548 11.1044 36.6414 10.6909 36.6414C10.1948 36.6414 9.86408 37.0548 9.86408 37.4682C9.78139 38.1297 9.86407 38.7912 10.1121 39.4527C10.3602 40.2796 11.5178 40.1969 11.6832 39.37C11.7659 39.2873 11.8486 39.2047 11.8486 39.0393C12.0139 38.5432 11.8486 38.047 11.5178 37.7163Z" fill="#c09e32"/>
<path d="M14.9907 40.7765C14.66 40.5284 14.0811 40.6938 13.8331 41.1072C13.7504 41.3553 13.585 41.5206 13.5023 41.7687C13.5023 41.8514 13.4196 41.8514 13.4196 41.9341C13.2543 42.3475 13.0889 42.6783 12.9235 43.0917C12.8409 43.1744 12.8409 43.2571 12.8409 43.4224V43.5051C12.6755 43.9186 13.0062 44.4147 13.4196 44.4974C13.9158 44.6627 14.2465 44.332 14.4119 43.9186C14.4946 43.7532 14.5773 43.5051 14.66 43.3398C14.908 42.9263 15.0734 42.5129 15.3215 42.0168C15.4868 41.5206 15.4042 41.0245 14.9907 40.7765Z" fill="#c09e32"/>
<path d="M18.2152 34.4924C18.2152 34.5751 18.1326 34.6578 18.1326 34.7405C18.0499 34.8232 17.9672 34.9059 17.8845 34.9885C17.7191 35.2366 17.6364 35.4847 17.4711 35.7327C17.3057 36.0635 17.3884 36.3942 17.5537 36.6423C17.5537 36.8077 17.6364 36.973 17.8018 37.1384C18.1326 37.4692 18.7114 37.4692 18.9594 37.1384C19.2902 36.725 19.4556 36.3115 19.4556 35.8981C19.6209 35.65 19.7863 35.3193 19.869 34.9885C20.117 33.9136 18.4633 33.5002 18.2152 34.4924Z" fill="#c09e32"/>
<path d="M26.5666 27.794C26.2359 27.6286 25.6571 27.7113 25.409 28.1247C25.1609 28.7035 24.9129 29.1996 24.6648 29.7785C24.5821 29.9438 24.5821 30.0265 24.5821 30.1919C24.4995 30.3573 24.4168 30.5226 24.4168 30.688C24.2514 31.1014 24.5821 31.5976 24.9956 31.6803C25.4917 31.8456 25.8225 31.5149 25.9878 31.1014C26.2359 30.6053 26.4013 30.0265 26.6493 29.5304C26.6493 29.4477 26.6493 29.4477 26.6493 29.365C26.732 29.2823 26.732 29.1996 26.8147 29.0343C27.0628 28.5381 26.9801 28.042 26.5666 27.794Z" fill="#c09e32"/>
<path d="M32.2725 25.7274C31.9417 25.4793 31.3629 25.6447 31.1149 26.0581C30.7841 26.7196 30.4534 27.4638 30.2053 28.1253C30.0399 28.4561 30.1226 28.7868 30.288 29.1176C30.4534 29.4483 30.7841 29.6137 31.0322 29.6137C31.5283 29.6137 31.7764 29.2002 31.8591 28.7868C31.9417 28.2907 32.1071 27.7946 32.3552 27.3811V27.2984C32.4379 27.1331 32.4379 27.0504 32.5205 26.885C32.7686 26.3889 32.6859 25.9755 32.2725 25.7274Z" fill="#c09e32"/>
<path d="M28.6337 34.4922C28.551 34.2442 28.551 33.9961 28.4683 33.8307C28.551 33.0039 27.3934 32.5077 26.98 33.3346C26.8146 33.6654 26.6492 33.9961 26.4012 34.3269C26.2358 34.6576 26.3185 35.1537 26.6492 35.4018C26.8973 35.5672 27.1453 35.6498 27.4761 35.5672C27.8895 35.7325 28.7991 35.3191 28.6337 34.4922Z" fill="#c09e32"/>
<path d="M30.1224 38.7089C29.8743 38.7089 29.7089 38.7089 29.5436 38.8743C29.4609 38.957 29.2955 39.0396 29.2128 39.1223C29.0475 39.1223 28.7994 39.205 28.7167 39.3704C28.5513 39.5358 28.4686 39.7838 28.4686 40.0319L28.386 40.1146C28.0552 40.6934 28.634 41.5202 29.2955 41.3549C29.5436 41.2722 29.7916 41.1068 29.957 40.9414C30.4531 40.6934 30.9493 40.3626 31.3627 39.9492C32.1069 39.1223 30.9493 37.9647 30.1224 38.7089Z" fill="#c09e32"/>
<path d="M23.4246 37.6335C23.3419 37.7989 23.2592 37.8816 23.1765 37.9643C23.0111 38.0469 22.8458 38.1296 22.7631 38.295C22.515 38.7084 22.267 39.1219 22.0189 39.4526C21.5228 40.2795 22.6804 41.1064 23.3419 40.4449C23.5072 40.2795 23.6726 40.1141 23.7553 39.9487C24.0034 39.866 24.2514 39.618 24.2514 39.2872C24.4168 39.0392 24.6649 38.7084 24.7476 38.3777C25.3264 37.4681 23.9207 36.6413 23.4246 37.6335Z" fill="#c09e32"/>
<path d="M21.3578 43.8362C21.0271 43.5054 20.4483 43.5054 20.2002 43.8362C20.2002 43.9189 20.1175 43.9189 20.1175 44.0016C19.8695 44.0843 19.7041 44.2496 19.6214 44.4977C19.6214 44.4977 19.6214 44.4977 19.6214 44.5804L19.5387 44.6631C19.2907 44.9938 19.2907 45.3246 19.3734 45.5726C19.2907 46.4822 20.779 46.8129 20.9444 45.8207C21.0271 45.6553 21.0271 45.4899 21.1098 45.2419C21.1925 45.1592 21.2752 44.9938 21.3578 44.9111C21.6886 44.6631 21.6886 44.1669 21.3578 43.8362Z" fill="#c09e32"/>
<path d="M25.9875 45.3239C25.7395 45.0758 25.078 44.9931 24.8299 45.3239C24.5819 45.6546 24.2511 45.9854 24.0031 46.3988C23.755 46.7295 23.6723 47.2257 24.0031 47.5564C24.1684 48.0525 24.8299 48.3006 25.3261 47.8872C25.7395 47.5564 25.9875 47.0603 25.9875 46.5642C26.2356 46.1507 26.3183 45.6546 25.9875 45.3239Z" fill="#c09e32"/>
<path d="M13.833 47.887C13.833 47.9697 13.833 47.9697 13.833 47.887C13.7503 47.9697 13.6676 48.0524 13.585 48.2178C13.3369 48.6312 13.1715 48.9619 12.9235 49.3754C12.4273 50.2849 13.833 51.1118 14.3291 50.2022C14.6599 49.7061 14.9079 49.21 15.2387 48.7139C15.8175 47.8043 14.4118 46.9775 13.833 47.887Z" fill="#c09e32"/>
<path d="M17.7194 49.954C17.3059 49.7059 16.8925 49.8713 16.5617 50.2847C16.3137 50.6154 15.9829 51.0289 15.7349 51.3596C15.5695 51.525 15.5695 51.8558 15.6522 52.1038C15.3214 52.7653 16.0656 53.6749 16.8098 53.1787C17.2232 52.9307 17.4713 52.3519 17.3886 51.8558C17.554 51.6077 17.802 51.3596 17.9674 51.1116C18.2982 50.6981 18.0501 50.1193 17.7194 49.954Z" fill="#c09e32"/>
<path d="M10.691 20.1869V19.1946C10.691 18.1197 9.0373 18.1197 9.0373 19.1946V20.0215C8.87192 20.4349 8.78923 20.8484 8.87191 21.2618C8.87191 21.4272 8.95461 21.5099 9.0373 21.5925C9.0373 21.6752 9.0373 21.8406 9.0373 21.9233C9.0373 22.9982 10.691 22.9982 10.691 21.9233C10.691 21.3445 10.691 20.7657 10.691 20.1869Z" fill="#c09e32"/>
<path d="M8.78947 32.9207C8.78947 31.9285 7.46648 31.8458 7.13573 32.6727C7.05305 32.9207 6.97035 33.1688 6.97035 33.4168C6.6396 33.7476 6.6396 34.2437 6.97035 34.5745C7.05304 34.6571 7.13571 34.7398 7.2184 34.7398C7.63184 35.0706 8.21064 35.0706 8.4587 34.5745C8.62408 34.0783 8.78947 33.6649 8.78947 33.1688V33.0861C8.78947 33.0861 8.78947 33.0034 8.78947 32.9207Z" fill="#c09e32"/>
<path d="M18.9598 22.3368C19.1252 21.9233 18.7944 21.4272 18.381 21.3445C17.8849 21.1791 17.4714 21.5099 17.3888 21.9233L17.1407 22.5848C17.058 22.7502 16.9753 22.9983 16.9753 23.1636C16.9753 23.2463 16.8926 23.329 16.8926 23.4117C16.6446 24.1559 17.6368 24.8174 18.2156 24.2386C18.381 24.1559 18.4637 23.9905 18.5464 23.8251C18.7117 23.5771 18.7944 23.329 18.7944 22.9983C18.7944 22.7502 18.8771 22.5848 18.9598 22.3368Z" fill="#c09e32"/>
<path d="M11.4354 45.4896C11.3527 45.3242 11.27 45.1588 11.1046 45.0761C10.9392 44.1666 9.53356 44.2493 9.45088 45.2415V46.1511C9.45088 46.2338 9.45088 46.2338 9.45088 46.3164V46.3991C9.45088 46.6472 9.45088 46.9779 9.45088 47.226C9.36819 48.3009 11.0219 48.3009 11.1046 47.226C11.1046 47.0606 11.1046 46.8953 11.1873 46.6472C11.4354 46.3991 11.6007 45.9857 11.4354 45.4896Z" fill="#c09e32"/>
<path d="M24.8303 24.4869C24.8303 24.4042 24.8303 24.4042 24.8303 24.3215C24.8303 23.7427 24.3342 23.4946 23.8381 23.5773H23.7554C22.7632 23.3292 21.7709 24.1561 21.7709 25.0657C21.6882 25.9752 22.5151 26.7194 23.4247 26.7194C23.8381 26.7194 24.3342 26.4714 24.5823 26.1406C24.7476 26.0579 24.8303 25.8925 24.913 25.7272C24.9957 25.3137 24.9957 24.9003 24.8303 24.4869Z" fill="#c09e32"/>
</svg>
