<svg width="20" height="20" viewBox="0 0 20 20" fill="none" xmlns="http://www.w3.org/2000/svg">
<path d="M9.97217 19.2769C15.2189 19.2769 19.4722 15.0236 19.4722 9.77685C19.4722 4.53015 15.2189 0.276855 9.97217 0.276855C4.72546 0.276855 0.472168 4.53015 0.472168 9.77685C0.472168 15.0236 4.72546 19.2769 9.97217 19.2769Z" fill="#41B4E6"/>
<path d="M8.58624 11.1609L12.8795 14.4024L15.0467 5.15137L3.971 9.50802L7.3412 10.6243L13.4919 6.4986L8.58624 11.1609Z" fill="white"/>
<path d="M7.34117 10.6243L8.2642 13.9457L8.58621 11.1609L13.4919 6.49854L7.34117 10.6243Z" fill="#D2D2D7"/>
<path d="M9.98152 12.2141L8.26419 13.9455L8.58619 11.1606L9.98152 12.2141Z" fill="#B9B9BE"/>
</svg>
