<svg width="20" height="20" viewBox="0 0 20 20" fill="none" xmlns="http://www.w3.org/2000/svg">
<path d="M10.2715 19.2769C15.5182 19.2769 19.7715 15.0236 19.7715 9.77686C19.7715 4.53015 15.5182 0.276855 10.2715 0.276855C5.02478 0.276855 0.771484 4.53015 0.771484 9.77686C0.771484 15.0236 5.02478 19.2769 10.2715 19.2769Z" fill="#75B73B"/>
<path d="M10.0058 4.30127C7.11018 4.43902 4.82517 6.85053 4.83389 9.74933C4.83657 10.6322 5.04972 11.4656 5.42579 12.2021L4.84848 15.0044C4.81727 15.156 4.95398 15.2887 5.10457 15.253L7.85048 14.6025C8.55597 14.954 9.34836 15.1569 10.187 15.1697C13.1465 15.2149 15.6142 12.865 15.7066 9.90649C15.8054 6.7352 13.1881 4.14967 10.0058 4.30127ZM13.2823 12.7432C12.4782 13.5474 11.4089 13.9903 10.2716 13.9903C9.60572 13.9903 8.9681 13.8408 8.37658 13.5462L7.99428 13.3557L6.31062 13.7545L6.66498 12.0343L6.47665 11.6653C6.16954 11.0639 6.01382 10.4137 6.01382 9.73248C6.01382 8.59515 6.45672 7.526 7.26085 6.7218C8.05781 5.92476 9.14448 5.47478 10.2717 5.47478C11.4089 5.47478 12.4781 5.91768 13.2823 6.7218C14.0864 7.52592 14.5293 8.59519 14.5293 9.73237C14.5293 10.8596 14.0793 11.9462 13.2823 12.7432Z" fill="white"/>
<path d="M12.9104 10.9116L11.8571 10.6092C11.7187 10.5695 11.5695 10.6088 11.4686 10.7116L11.211 10.9739C11.1024 11.0847 10.9377 11.1202 10.7939 11.062C10.2956 10.8604 9.24747 9.92843 8.97995 9.46241C8.90262 9.32793 8.91542 9.1599 9.01027 9.03706L9.23508 8.74616C9.32318 8.63224 9.34173 8.47909 9.28351 8.34735L8.84038 7.3451C8.73425 7.10508 8.42751 7.03516 8.22708 7.20468C7.93313 7.45335 7.58434 7.83109 7.542 8.24968C7.46723 8.98767 7.78377 9.91789 8.98043 11.0349C10.363 12.3255 11.4703 12.4959 12.1912 12.3213C12.6002 12.2223 12.9269 11.8253 13.133 11.5002C13.2737 11.2784 13.1626 10.984 12.9104 10.9116Z" fill="white"/>
</svg>
