<svg width="36" height="43" viewBox="0 0 36 43" fill="none" xmlns="http://www.w3.org/2000/svg">
<path d="M32.2175 1.43242C29.4888 0.770924 26.0986 1.51511 23.37 1.43242C19.1529 1.26705 14.9359 0.688238 10.7189 0.522864C7.16334 0.35749 1.20989 -0.552065 0.796452 4.32646C0.796452 4.65721 0.465707 20.285 0.631081 27.9749C0.713767 31.117 -0.0304147 35.7475 1.04452 38.8069C1.54064 40.2953 2.28481 40.7087 3.85586 41.0394C6.99797 41.7009 11.0496 40.8741 14.3571 40.9568C17.9953 41.0394 21.5509 41.2048 25.1064 41.5356C27.0909 41.7009 31.3079 42.8586 33.0443 41.5356C34.2846 40.5433 34.2846 38.3108 34.5327 36.9051C35.6903 29.2979 34.6981 21.5253 34.6981 13.9181C34.5327 10.3626 36.9306 2.67272 32.2175 1.43242ZM33.127 21.5253C33.2097 24.0886 33.2924 26.6519 33.2924 29.2152C33.2924 31.6131 33.5405 35.9955 32.5482 38.1454C31.0599 41.2875 27.7524 40.1299 25.0237 39.8818C22.4604 39.6338 19.8971 39.4684 17.3338 39.3857C14.7705 39.303 12.2072 39.2203 9.64395 39.303C6.74991 39.303 3.52512 39.9645 2.45019 36.7397C1.70601 34.5899 2.28481 31.117 2.20213 28.8018C2.11944 26.1558 2.11943 23.5098 2.11943 20.8638C2.11943 15.3238 2.61556 3.91303 2.53287 3.83034C4.02123 0.440177 16.0108 2.67272 18.5741 2.8381C21.2201 3.08616 23.8661 3.25153 26.5121 3.25153C29.5715 3.25153 32.4655 2.34198 33.2924 6.22826C33.7058 8.37812 32.9617 11.6029 32.9617 13.9181C32.879 16.3987 33.0443 18.962 33.127 21.5253Z" fill="#c09e32"/>
<path d="M31.7217 5.31925C30.5641 4.32701 28.3316 4.74044 26.9259 4.74044C19.4841 4.65776 12.1249 4.4097 4.68312 3.91357C4.187 3.91357 3.85625 4.24432 3.85625 4.65776C3.85625 4.74044 3.85624 4.74044 3.77356 4.82313C3.60818 10.7766 2.69863 11.6035 8.5694 11.8515C16.1766 12.1823 23.7838 12.513 31.4737 12.8438C31.8871 12.8438 32.3005 12.4303 32.3005 12.0169C32.3832 10.3632 33.2928 6.80761 31.7217 5.31925ZM30.3987 10.8593C29.3238 11.8515 24.8587 10.942 23.453 10.942C20.9724 10.8593 18.5745 10.6939 16.0939 10.6112C13.8614 10.5285 11.5461 10.4458 9.2309 10.3632C9.47896 10.1978 9.64433 10.0324 9.64433 9.70166C9.64433 9.4536 9.64433 9.12285 9.64433 8.87479C9.89239 8.87479 10.0578 8.95747 10.3058 8.95747C11.3808 9.20553 11.7942 7.5518 10.7193 7.38642C10.3885 7.30374 9.97508 7.22105 9.64433 7.22105C9.64433 7.05568 9.64433 6.8903 9.64433 6.72493C9.56164 5.65 7.90791 5.65 7.99059 6.72493C7.99059 6.8903 7.99059 6.97299 7.99059 7.13836C7.74253 7.13836 7.41179 7.13836 7.16372 7.22105C6.08879 7.30374 6.08879 8.95747 7.16372 8.87479C7.41179 8.87479 7.74253 8.7921 7.99059 8.7921C7.99059 9.12285 7.99059 9.4536 7.99059 9.78434C7.99059 10.0324 8.07328 10.2805 8.23866 10.3632C7.3291 10.3632 5.84073 10.4458 5.42729 9.94972C5.17923 9.70166 5.4273 7.05568 5.50999 5.73268C9.97508 5.98075 14.5229 6.22881 18.988 6.31149C21.6339 6.39418 24.2799 6.22881 26.9259 6.47687C28.0008 6.55955 30.068 6.47687 30.7295 7.5518C31.2256 8.13061 30.7295 10.5285 30.3987 10.8593Z" fill="#c09e32"/>
<path d="M10.2227 14.2489C8.3209 13.8355 6.17104 14.4143 5.34417 16.3161C4.59999 18.0525 5.34417 20.037 7.08059 20.6985C8.98239 21.4427 11.7938 21.1119 11.9591 18.8794C12.2072 15.9853 10.6361 14.3316 10.2227 14.2489ZM10.3881 18.3006C10.0573 19.5409 8.48627 19.6236 7.49403 19.0448C6.66716 18.5486 6.50178 17.391 7.08059 16.5641C7.49403 15.9853 8.15553 15.7373 8.89971 15.6546C8.9824 15.6546 8.9824 15.7373 9.06509 15.7373C10.0573 16.1507 10.7188 17.2256 10.3881 18.3006Z" fill="#c09e32"/>
<path d="M19.649 14.2489C17.7472 13.8355 15.5974 14.4143 14.7705 16.3161C14.0263 18.0525 14.7705 20.037 16.5069 20.6985C18.4087 21.4427 21.2201 21.1119 21.3855 18.8794C21.5508 15.9853 20.0625 14.3316 19.649 14.2489ZM19.8144 18.3006C19.4837 19.5409 17.9126 19.6236 16.9204 19.0448C16.0935 18.5486 15.9281 17.391 16.5069 16.5641C16.9204 15.9853 17.5819 15.7373 18.326 15.6546C18.4087 15.6546 18.4087 15.7373 18.4914 15.7373C19.401 16.1507 20.1452 17.2256 19.8144 18.3006Z" fill="#c09e32"/>
<path d="M28.993 14.2489C27.0912 13.8355 24.9413 14.4143 24.1144 16.3161C23.3703 18.0525 24.1144 20.037 25.8509 20.6985C27.7527 21.4427 30.564 21.1119 30.7294 18.8794C30.8948 15.9853 29.4064 14.3316 28.993 14.2489ZM29.1583 18.3006C28.8276 19.5409 27.2565 19.6236 26.2643 19.0448C25.4374 18.5486 25.2721 17.391 25.8509 16.5641C26.2643 15.9853 26.9258 15.7373 27.67 15.6546C27.7527 15.6546 27.7527 15.7373 27.8353 15.7373C28.7449 16.1507 29.4064 17.143 29.1583 18.3006Z" fill="#c09e32"/>
<path d="M10.0576 22.849C8.1558 22.4356 6.00594 23.0144 5.17907 24.9162C4.43489 26.6526 5.17907 28.6371 6.91549 29.2986C8.81729 30.0428 11.6287 29.712 11.794 27.4795C12.0421 24.6681 10.5537 22.9317 10.0576 22.849ZM10.223 26.9007C9.89222 28.141 8.32117 28.2237 7.32893 27.6449C6.50206 27.1487 6.33668 25.9911 6.91549 25.1642C7.32893 24.5854 7.99042 24.3374 8.7346 24.2547C8.81729 24.2547 8.8173 24.3374 8.89998 24.3374C9.89223 24.7508 10.5537 25.8257 10.223 26.9007Z" fill="#c09e32"/>
<path d="M19.4839 22.849C17.5821 22.4356 15.4323 23.0144 14.6054 24.9162C13.8612 26.6526 14.6054 28.6371 16.3418 29.2986C18.2436 30.0428 21.055 29.712 21.2204 27.4795C21.4684 24.6681 19.98 22.9317 19.4839 22.849ZM19.6493 26.9007C19.3186 28.141 17.7475 28.2237 16.7553 27.6449C15.9284 27.1487 15.763 25.9911 16.3418 25.1642C16.7553 24.5854 17.4168 24.3374 18.1609 24.2547C18.2436 24.2547 18.2436 24.3374 18.3263 24.3374C19.3186 24.7508 19.9801 25.8257 19.6493 26.9007Z" fill="#c09e32"/>
<path d="M10.0576 30.7045C8.1558 30.291 6.00594 30.8699 5.17907 32.7717C4.43489 34.5081 5.17907 36.4926 6.91549 37.1541C8.81729 37.8982 11.6287 37.5675 11.794 35.3349C12.0421 32.5236 10.5537 30.7872 10.0576 30.7045ZM10.223 34.7561C9.89222 35.9964 8.32117 36.0791 7.32893 35.5003C6.50206 35.0042 6.33668 33.8466 6.91549 33.0197C7.32893 32.4409 7.99042 32.1928 8.7346 32.1102C8.81729 32.1102 8.8173 32.1928 8.89998 32.1928C9.89223 32.6063 10.5537 33.6812 10.223 34.7561Z" fill="#c09e32"/>
<path d="M19.4839 30.7045C17.5821 30.291 15.4323 30.8699 14.6054 32.7717C13.8612 34.5081 14.6054 36.4926 16.3418 37.1541C18.2436 37.8982 21.055 37.5675 21.2204 35.3349C21.4684 32.5236 19.98 30.7872 19.4839 30.7045ZM19.6493 34.7561C19.3186 35.9964 17.7475 36.0791 16.7553 35.5003C15.9284 35.0042 15.763 33.8466 16.3418 33.0197C16.7553 32.4409 17.4168 32.1928 18.1609 32.1102C18.2436 32.1102 18.2436 32.1928 18.3263 32.1928C19.3186 32.6063 19.9801 33.6812 19.6493 34.7561Z" fill="#c09e32"/>
<path d="M28.8274 22.849C26.9256 22.4356 24.7758 23.0144 23.9489 24.9162C23.2047 26.6526 23.9489 28.6371 25.6853 29.2986C27.5871 30.0428 30.3985 29.712 30.5639 27.4795C30.8119 24.5854 29.2409 22.9317 28.8274 22.849ZM28.9928 26.9007C28.6621 28.141 27.091 28.2237 26.0988 27.6449C25.2719 27.1487 25.1065 25.9911 25.6853 25.1642C26.0988 24.5854 26.7603 24.3374 27.5045 24.2547C27.5871 24.2547 27.5871 24.3374 27.6698 24.3374C28.6621 24.7508 29.3236 25.8257 28.9928 26.9007Z" fill="#c09e32"/>
<path d="M31.7213 31.8618C31.3906 31.2003 30.7291 30.9522 30.0676 31.0349C29.9849 31.0349 29.9849 30.9522 29.9022 30.9522C28.91 30.8695 28.0004 30.7868 27.0082 30.7042C26.264 30.6215 25.2718 30.3734 24.4449 30.4561C23.37 30.6215 23.2873 31.4483 23.1219 32.3579C23.0392 33.2674 22.9565 34.177 22.8738 35.1692C22.7912 35.8307 22.6258 36.6576 22.7912 37.3191C23.1219 38.4767 24.4449 38.3114 25.3545 38.3114C26.3467 38.3114 27.2563 38.3114 28.2485 38.3114C28.91 38.3114 29.7369 38.4767 30.3984 38.2287C31.3906 37.8979 31.3079 36.9884 31.4733 36.1615C31.6387 35.0039 32.3002 33.0194 31.7213 31.8618ZM29.7369 36.6576C29.1581 36.9057 27.8351 36.6576 27.1736 36.6576C26.5948 36.6576 25.2718 36.9057 24.5276 36.7403C24.5276 36.6576 24.5276 36.5749 24.5276 36.3269C24.6103 35.9134 24.6103 35.4173 24.6103 34.9212C24.693 34.2597 24.5276 33.0194 24.8583 32.4406C24.6103 32.1925 24.693 32.1098 25.0237 32.1925C25.1891 32.1925 25.4371 32.1925 25.6025 32.2752C26.0986 32.3579 26.5948 32.3579 27.0082 32.4406C27.8351 32.5233 28.7446 32.606 29.5715 32.6886C29.8196 32.7713 30.0676 32.854 30.3157 32.6886C29.9022 32.854 29.9849 34.5078 29.9022 34.9212C29.8195 35.2519 29.7369 35.6654 29.7369 35.9961C29.7369 36.1615 29.6542 36.3269 29.6542 36.4922C30.1503 36.6576 30.1503 36.7403 29.7369 36.6576Z" fill="#c09e32"/>
<path d="M28.331 34.7559H26.2638C25.1889 34.7559 25.1889 36.4096 26.2638 36.4096H28.331C29.3233 36.4096 29.3233 34.7559 28.331 34.7559Z" fill="#c09e32"/>
</svg>
