<svg width="43" height="32" viewBox="0 0 43 32" fill="none" xmlns="http://www.w3.org/2000/svg">
<path d="M42.5435 4.44708C41.5513 -0.183382 36.5901 0.891548 33.0345 1.13961C25.8408 1.55304 18.7297 1.55304 11.5359 1.2223C11.4532 1.13961 11.2879 1.13961 11.2052 1.13961C6.90546 0.808861 2.68843 1.38767 1.28275 5.93545C0.53857 8.41606 0.78663 11.3101 0.869317 13.8734C1.03469 18.0077 1.36544 22.1421 1.86156 26.1937C2.52306 31.155 4.09411 31.4857 8.88995 31.4857C16.5798 31.4857 24.3524 31.6511 32.0423 31.4857C34.5229 31.403 38.1611 31.8165 40.4763 30.7415C42.2128 29.9147 42.0474 28.3436 42.2128 26.5245C42.3781 22.8036 42.4608 19 42.5435 15.1964C42.6262 11.8889 43.205 7.75456 42.5435 4.44708ZM9.13801 2.71066C9.2207 2.71066 9.2207 2.71066 9.30338 2.71066C14.2646 3.04141 19.3085 3.20678 24.2697 3.12409C26.6676 3.12409 28.9829 3.04141 31.3808 2.87603C33.448 2.79335 35.9286 2.13185 37.9957 2.54529C38.9053 2.71066 39.4841 3.28947 39.9802 4.03365C37.665 6.92769 35.1844 9.65636 32.4557 12.2197C31.05 13.5426 29.6444 14.783 28.156 16.0233C26.833 17.0982 24.9312 19.3307 23.1948 19.7442C20.7142 20.4057 16.2491 14.0388 14.43 12.0543C11.6186 9.07755 8.80726 6.10082 6.07859 3.12409C7.07084 2.79335 8.06308 2.71066 9.13801 2.71066ZM40.6417 25.6976C40.4763 26.6072 40.1456 27.2687 39.8149 27.7648C37.7477 24.54 35.2671 21.5633 32.373 19.0827C31.5462 18.4212 30.3885 19.5788 31.2154 20.2403C34.1095 22.8036 36.5901 25.6976 38.6572 28.9224C37.1689 29.832 35.1017 29.6666 32.9518 29.7493C28.4041 29.9147 23.7736 29.7493 19.2258 29.7493C16.9106 29.7493 14.5127 29.7493 12.1974 29.7493C10.3783 29.7493 7.07084 30.3281 5.08635 29.3358C7.73233 26.6072 10.461 24.1266 13.5204 21.894C14.3473 21.2325 13.5204 19.8268 12.6935 20.4883C9.55144 22.8036 6.6574 25.3669 3.92873 28.1782C3.01918 26.3591 3.26724 22.5555 3.10186 20.7364C2.93649 18.4212 2.77112 16.1059 2.68843 13.7907C2.60574 11.6408 2.10962 8.33337 3.01918 6.34888C3.5153 5.27395 4.09411 4.52977 4.7556 3.95096C8.39383 7.83725 12.0321 11.6408 15.6703 15.5271C17.324 17.2636 20.2181 22.1421 22.9467 21.894C25.262 21.646 29.479 17.1809 31.2154 15.6925C34.771 12.6331 37.9131 9.24293 40.8898 5.6047C41.9647 9.49099 41.0552 15.6925 41.0552 18.3385C40.8071 20.7364 41.1378 23.5478 40.6417 25.6976Z" fill="#c09e32"/>
</svg>
