<svg width="44" height="42" viewBox="0 0 44 42" fill="none" xmlns="http://www.w3.org/2000/svg">
<path d="M42.6795 4.70224C42.5968 4.70224 42.5968 4.61956 42.5141 4.61956C39.1239 2.80045 34.9896 2.55238 31.186 2.05626C26.4728 1.39477 21.5943 0.981333 16.7158 0.815959C12.4988 0.650585 8.19903 -0.672404 4.31275 1.14671C-0.648467 3.46194 0.0130287 6.52136 0.591837 7.18285C0.343776 14.2112 3.15513 20.9916 8.86053 25.5393C10.5143 26.8623 12.3334 27.6892 14.2352 28.6814C16.7158 30.0871 15.7235 31.6582 15.6409 34.3042C15.5582 38.1078 20.9328 39.6788 23.9922 41.1672C24.4057 41.4152 25.0672 41.2499 25.2325 40.671C25.646 38.6039 26.0594 36.6194 26.3075 34.5522C26.4728 32.9812 26.1421 29.8391 27.3824 28.7641C28.292 28.0199 30.3591 27.6892 31.5167 27.1931C33.1705 26.4489 34.7415 25.622 36.0645 24.5471C41.5219 20.1647 42.5968 11.896 43.4237 5.36374C43.4237 5.03299 43.0929 4.78493 42.6795 4.70224ZM7.04142 2.4697C8.61247 2.38701 10.2662 2.38701 11.8373 2.38701C15.062 2.38701 18.2868 2.4697 21.5116 2.71776C27.3824 3.13119 34.9896 3.04851 40.6123 5.44643C35.0723 7.92703 28.3746 7.67897 22.5039 8.00972C19.3618 8.17509 16.2197 8.42315 13.1603 8.42315C11.7546 8.42315 10.2662 8.42315 8.86053 8.25778C8.19903 8.17509 3.15513 7.43091 2.7417 6.52136C1.17064 3.46194 5.8838 2.4697 7.04142 2.4697ZM40.7777 11.8133C40.6123 11.896 40.5296 11.9787 40.4469 12.1441C37.3048 17.2707 30.0284 16.8572 24.7364 16.6092C23.3307 16.5265 21.0155 15.9477 19.1137 15.865C19.031 16.113 18.9483 16.3611 18.9483 16.6092C18.9483 16.6918 18.9483 16.7745 19.031 16.7745C19.2791 17.0226 19.4445 17.2707 19.6925 17.436C21.5116 17.6014 23.7442 18.1802 24.8191 18.1802C27.5478 18.2629 30.2764 18.2629 33.0051 17.9321C35.7338 17.6014 38.2144 16.8572 40.1162 15.1208C39.372 17.6014 38.3798 19.9166 36.8087 21.6531C33.9974 24.8778 29.7803 26.2835 25.8113 27.5238C25.4806 27.6065 25.2325 27.9373 25.2325 28.3507C25.0672 32.0716 24.571 35.6271 23.8269 39.2654C22.0077 38.4385 19.8579 37.4463 18.5349 36.1233C16.7158 34.3042 17.6253 31.1621 17.7907 28.7641C17.7907 28.4334 17.5427 28.1026 17.2119 27.9373C8.36441 25.1259 2.65901 17.3533 2.41095 8.42315C6.5453 10.573 14.4006 10.0769 17.0465 9.91152C24.8191 9.58077 34.4108 10.2423 41.6872 6.8521C41.3565 8.50584 41.1084 10.1596 40.7777 11.8133Z" fill="#C09E32"/>
</svg>
