<svg width="20" height="20" viewBox="0 0 20 20" fill="none" xmlns="http://www.w3.org/2000/svg">
<path d="M9.5708 19.2769C14.8175 19.2769 19.0708 15.0236 19.0708 9.77686C19.0708 4.53015 14.8175 0.276855 9.5708 0.276855C4.3241 0.276855 0.0708008 4.53015 0.0708008 9.77686C0.0708008 15.0236 4.3241 19.2769 9.5708 19.2769Z" fill="#6F3FAA"/>
<path d="M14.5963 6.95391L14.5932 6.94137C14.3394 5.91519 13.195 4.81408 12.1441 4.585L12.1322 4.58255C10.4324 4.25829 8.70884 4.25829 7.00938 4.58255L6.99717 4.585C5.94661 4.81408 4.80219 5.91526 4.54803 6.94137L4.54521 6.95391C4.23141 8.38697 4.23141 9.84032 4.54521 11.2734L4.54803 11.2859C4.79139 12.2683 5.85053 13.3188 6.86224 13.6077V14.7532C6.86224 15.1679 7.36749 15.3715 7.65479 15.0723L8.81538 13.8659C9.06713 13.8799 9.319 13.8878 9.57078 13.8878C10.4264 13.8878 11.2825 13.8069 12.1322 13.6448L12.144 13.6423C13.195 13.4132 14.3393 12.3121 14.5932 11.286L14.5963 11.2734C14.9101 9.84032 14.9101 8.38704 14.5963 6.95391ZM13.6778 11.0656C13.5083 11.7351 12.6395 12.5674 11.9491 12.7212C11.0453 12.893 10.1343 12.9665 9.22422 12.9413C9.20611 12.9408 9.1887 12.9478 9.17612 12.9608C9.04695 13.0934 8.32873 13.8307 8.32873 13.8307L7.42742 14.7558C7.36151 14.8245 7.24573 14.7777 7.24573 14.6829V12.7853C7.24573 12.7539 7.22335 12.7273 7.19255 12.7212C7.19237 12.7212 7.19222 12.7212 7.19203 12.7211C6.50165 12.5673 5.63307 11.735 5.46329 11.0656C5.18085 9.77022 5.18085 8.45707 5.46329 7.16173C5.63307 6.49224 6.50165 5.65995 7.19203 5.50617C8.77052 5.20595 10.371 5.20595 11.9491 5.50617C12.6398 5.65995 13.5084 6.49224 13.6779 7.16173C13.9606 8.4571 13.9606 9.77026 13.6778 11.0656Z" fill="white"/>
<path d="M11.0725 11.9416C10.9663 11.9093 10.8652 11.8877 10.7712 11.8488C9.79781 11.4449 8.90199 10.9239 8.19242 10.1253C7.78889 9.67113 7.47305 9.15839 7.20609 8.61578C7.07947 8.35846 6.97278 8.09109 6.86402 7.82539C6.76486 7.58314 6.91092 7.33287 7.0647 7.15029C7.20902 6.97896 7.39475 6.84789 7.59589 6.75122C7.75286 6.67581 7.90768 6.7193 8.02235 6.85234C8.27016 7.14001 8.49787 7.44238 8.68215 7.77585C8.79552 7.98095 8.76442 8.23166 8.55895 8.37123C8.509 8.40515 8.4635 8.445 8.41701 8.4833C8.37619 8.51688 8.33781 8.5508 8.30983 8.59626C8.25873 8.67942 8.25628 8.77758 8.28916 8.86801C8.54251 9.56422 8.96953 10.1056 9.67034 10.3973C9.78248 10.4439 9.89507 10.4982 10.0243 10.4832C10.2406 10.4579 10.3107 10.2206 10.4623 10.0966C10.6105 9.97543 10.7999 9.97383 10.9595 10.0748C11.1192 10.1759 11.2739 10.2844 11.4278 10.394C11.5788 10.5016 11.7292 10.6068 11.8684 10.7296C12.0024 10.8475 12.0485 11.0023 11.9731 11.1623C11.835 11.4555 11.6341 11.6994 11.3443 11.8551C11.2625 11.899 11.1647 11.9132 11.0725 11.9416C10.9663 11.9093 11.1647 11.9132 11.0725 11.9416Z" fill="white"/>
<path d="M9.57346 6.41603C10.8466 6.45173 11.8924 7.29667 12.1165 8.55543C12.1547 8.76992 12.1683 8.98916 12.1853 9.20688C12.1925 9.29843 12.1406 9.38541 12.0418 9.38664C11.9397 9.38786 11.8938 9.30244 11.8872 9.21096C11.8741 9.0298 11.865 8.84777 11.84 8.66816C11.7082 7.71968 10.9519 6.93501 10.0079 6.76664C9.86577 6.74129 9.72045 6.73465 9.5765 6.71955C9.48555 6.71001 9.36643 6.70452 9.34628 6.59141C9.32939 6.4966 9.4094 6.42111 9.49969 6.41625C9.52414 6.41481 9.54882 6.41596 9.57346 6.41603C10.8467 6.45173 9.54882 6.41596 9.57346 6.41603Z" fill="white"/>
<path d="M11.5084 8.92443C11.5063 8.94035 11.5052 8.97772 11.4958 9.0129C11.4621 9.1407 11.2682 9.1567 11.2236 9.02774C11.2104 8.98948 11.2084 8.94592 11.2083 8.90473C11.2079 8.63509 11.1493 8.36568 11.0133 8.13103C10.8735 7.88986 10.6599 7.6872 10.4094 7.56448C10.258 7.49034 10.0942 7.44421 9.92818 7.41679C9.85563 7.40477 9.7823 7.39753 9.70938 7.38736C9.62102 7.37508 9.57382 7.31878 9.57805 7.23172C9.58195 7.15016 9.64158 7.09141 9.7305 7.0965C10.0227 7.11305 10.3049 7.17628 10.5647 7.31381C11.0929 7.59358 11.3947 8.0351 11.4828 8.62474C11.4868 8.65149 11.4932 8.67791 11.4952 8.70471C11.5002 8.77084 11.5033 8.83708 11.5084 8.92443C11.5063 8.94028 11.5033 8.83708 11.5084 8.92443Z" fill="white"/>
<path d="M10.7165 8.89341C10.61 8.89534 10.553 8.83634 10.542 8.73874C10.5344 8.67068 10.5283 8.60166 10.512 8.53538C10.48 8.40487 10.4107 8.28396 10.3009 8.20399C10.2491 8.16625 10.1903 8.13875 10.1289 8.12094C10.0507 8.09834 9.96955 8.10458 9.89166 8.0855C9.80701 8.06476 9.76018 7.99618 9.7735 7.9168C9.7856 7.84452 9.85588 7.78811 9.93489 7.79386C10.4285 7.82949 10.7813 8.08469 10.8317 8.66582C10.8353 8.70682 10.8394 8.75013 10.8303 8.78943C10.8147 8.85649 10.765 8.89014 10.7165 8.89341C10.6099 8.8953 10.765 8.89014 10.7165 8.89341Z" fill="white"/>
<path d="M11.0732 11.9416C11.1668 11.9127 10.9655 11.9088 11.0732 11.9416V11.9416Z" fill="white"/>
<path d="M9.57414 6.41553C9.57522 6.41553 9.57626 6.41564 9.57733 6.41564C9.64799 6.41816 10.7972 6.44982 9.57414 6.41553Z" fill="white"/>
<path d="M11.5083 8.92472C11.5032 8.83611 11.5062 8.94079 11.5083 8.92472V8.92472Z" fill="white"/>
<path d="M10.7179 8.89336C10.7198 8.89323 10.7215 8.89229 10.7233 8.89209C10.7183 8.89209 10.7108 8.89221 10.703 8.8925C10.708 8.89262 10.7126 8.8934 10.7179 8.89336Z" fill="white"/>
<path d="M10.7169 8.89435C10.712 8.89442 10.7077 8.89371 10.7031 8.89355C10.6797 8.8942 10.6556 8.89544 10.7169 8.89435Z" fill="white"/>
<path d="M10.7221 8.89209C10.7204 8.89229 10.7187 8.89319 10.717 8.89331C10.7302 8.89241 10.7291 8.89209 10.7221 8.89209Z" fill="white"/>
</svg>
